ply
format ascii 1.0
comment created by gply, a Houdini tool.
comment converted from .[b]geo
comment for more information about Houdini, try:
comment www.sidefx.com
element vertex 42
property float x
property float y
property float z
element face 80
property list uchar int vertex_indices
end_header
0 0 -1 
0 0.525731206 -0.850650787 
0.49999997 0.162460104 -0.850650787 
0 0.894427359 -0.447213143 
0.49999997 0.688191354 -0.52573061 
0.850650847 0.276393682 -0.447213203 
0.309017003 -0.425325423 -0.850650847 
0.809017241 -0.262865394 -0.525730789 
0.525731206 -0.723606944 -0.447213262 
-0.309017003 -0.425325423 -0.850650847 
0 -0.850651026 -0.525730729 
-0.525731206 -0.723606944 -0.447213262 
-0.49999997 0.162460104 -0.850650787 
-0.809017241 -0.262865394 -0.525730789 
-0.850650847 0.276393682 -0.447213203 
-0.49999997 0.688191354 -0.52573061 
-0.309016973 0.9510566 0 
-0.809016824 0.587785423 0 
-0.525731206 0.723606944 0.447213262 
-1 0 0 
-0.809016824 -0.587785423 0 
-0.850650847 -0.276393682 0.447213203 
-0.309016973 -0.9510566 0 
0.309016973 -0.9510566 0 
0 -0.894427359 0.447213143 
0.809016824 -0.587785423 0 
1 0 0 
0.850650847 -0.276393682 0.447213203 
0.809016824 0.587785423 0 
0.309016973 0.9510566 0 
0.525731206 0.723606944 0.447213262 
0 0.850651026 0.525730729 
-0.809017241 0.262865394 0.525730789 
-0.49999997 -0.688191354 0.52573061 
0.49999997 -0.688191354 0.52573061 
0.809017241 0.262865394 0.525730789 
0 0 1 
0.309017003 0.425325423 0.850650847 
-0.309017003 0.425325423 0.850650847 
0.49999997 -0.162460104 0.850650787 
0 -0.525731206 0.850650787 
-0.49999997 -0.162460104 0.850650787 
3 2 1 0 
3 4 3 1 
3 5 4 2 
3 2 4 1 
3 6 2 0 
3 7 5 2 
3 8 7 6 
3 6 7 2 
3 9 6 0 
3 10 8 6 
3 11 10 9 
3 9 10 6 
3 12 9 0 
3 13 11 9 
3 14 13 12 
3 12 13 9 
3 1 12 0 
3 15 14 12 
3 3 15 1 
3 1 15 12 
3 16 15 3 
3 17 14 15 
3 18 17 16 
3 16 17 15 
3 19 13 14 
3 20 11 13 
3 21 20 19 
3 19 20 13 
3 22 10 11 
3 23 8 10 
3 24 23 22 
3 22 23 10 
3 25 7 8 
3 26 5 7 
3 27 26 25 
3 25 26 7 
3 28 4 5 
3 29 3 4 
3 30 29 28 
3 28 29 4 
3 29 16 3 
3 31 18 16 
3 30 31 29 
3 29 31 16 
3 17 19 14 
3 32 21 19 
3 18 32 17 
3 17 32 19 
3 20 22 11 
3 33 24 22 
3 21 33 20 
3 20 33 22 
3 23 25 8 
3 34 27 25 
3 24 34 23 
3 23 34 25 
3 26 28 5 
3 35 30 28 
3 27 35 26 
3 26 35 28 
3 38 37 36 
3 31 30 37 
3 18 31 38 
3 38 31 37 
3 37 39 36 
3 35 27 39 
3 30 35 37 
3 37 35 39 
3 39 40 36 
3 34 24 40 
3 27 34 39 
3 39 34 40 
3 40 41 36 
3 33 21 41 
3 24 33 40 
3 40 33 41 
3 41 38 36 
3 32 18 38 
3 21 32 41 
3 41 32 38 
